<svg width="113" height="70" viewBox="0 0 113 70" fill="none" xmlns="http://www.w3.org/2000/svg">
<mask id="path-1-outside-1_113_331" maskUnits="userSpaceOnUse" x="0" y="8" width="99" height="59" fill="black">
<rect fill="white" y="8" width="99" height="59"/>
<path d="M25.344 65.472C20.5653 65.472 16.384 64.5973 12.8 62.848C9.25867 61.0987 6.528 58.624 4.608 55.424C2.73067 52.1813 1.792 48.384 1.792 44.032C1.792 39.6373 2.752 35.7973 4.672 32.512C6.63467 29.184 9.408 26.6453 12.992 24.896C16.6187 23.104 20.864 22.208 25.728 22.208C30.2933 22.208 34.2827 22.9973 37.696 24.576C41.1093 26.1547 43.7333 28.416 45.568 31.36C47.4453 34.2613 48.448 37.696 48.576 41.664H33.152C32.8533 39.4453 32.0853 37.7813 30.848 36.672C29.6533 35.52 28.032 34.944 25.984 34.944C24.32 34.944 22.912 35.3067 21.76 36.032C20.6507 36.7147 19.7973 37.7387 19.2 39.104C18.6027 40.4267 18.304 42.0693 18.304 44.032C18.304 45.9093 18.5813 47.5093 19.136 48.832C19.7333 50.112 20.5653 51.0933 21.632 51.776C22.7413 52.416 24.0853 52.736 25.664 52.736C27.456 52.736 28.9067 52.288 30.016 51.392C31.1253 50.4533 31.872 49.088 32.256 47.296H47.808C47.552 50.9653 46.464 54.1867 44.544 56.96C42.6667 59.6907 40.0853 61.8027 36.8 63.296C33.5147 64.7467 29.696 65.472 25.344 65.472ZM69.5275 9.728V64H52.8875V9.728H69.5275ZM80.7275 43.52C80.7275 41.344 80.2795 39.744 79.3835 38.72C78.4875 37.6533 77.0795 37.12 75.1595 37.12C73.2395 37.12 71.8102 37.6533 70.8715 38.72C69.9755 39.744 69.5275 41.344 69.5275 43.52H68.1195V30.016H71.0635C71.9595 27.584 73.3888 25.728 75.3515 24.448C77.3568 23.168 79.8102 22.528 82.7115 22.528C85.7408 22.528 88.3648 23.2107 90.5835 24.576C92.8022 25.8987 94.4875 27.84 95.6395 30.4C96.7915 32.96 97.3675 35.9893 97.3675 39.488V64H80.7275V43.52Z"/>
</mask>
<path d="M25.344 65.472C20.5653 65.472 16.384 64.5973 12.8 62.848C9.25867 61.0987 6.528 58.624 4.608 55.424C2.73067 52.1813 1.792 48.384 1.792 44.032C1.792 39.6373 2.752 35.7973 4.672 32.512C6.63467 29.184 9.408 26.6453 12.992 24.896C16.6187 23.104 20.864 22.208 25.728 22.208C30.2933 22.208 34.2827 22.9973 37.696 24.576C41.1093 26.1547 43.7333 28.416 45.568 31.36C47.4453 34.2613 48.448 37.696 48.576 41.664H33.152C32.8533 39.4453 32.0853 37.7813 30.848 36.672C29.6533 35.52 28.032 34.944 25.984 34.944C24.32 34.944 22.912 35.3067 21.76 36.032C20.6507 36.7147 19.7973 37.7387 19.2 39.104C18.6027 40.4267 18.304 42.0693 18.304 44.032C18.304 45.9093 18.5813 47.5093 19.136 48.832C19.7333 50.112 20.5653 51.0933 21.632 51.776C22.7413 52.416 24.0853 52.736 25.664 52.736C27.456 52.736 28.9067 52.288 30.016 51.392C31.1253 50.4533 31.872 49.088 32.256 47.296H47.808C47.552 50.9653 46.464 54.1867 44.544 56.96C42.6667 59.6907 40.0853 61.8027 36.8 63.296C33.5147 64.7467 29.696 65.472 25.344 65.472ZM69.5275 9.728V64H52.8875V9.728H69.5275ZM80.7275 43.52C80.7275 41.344 80.2795 39.744 79.3835 38.72C78.4875 37.6533 77.0795 37.12 75.1595 37.12C73.2395 37.12 71.8102 37.6533 70.8715 38.72C69.9755 39.744 69.5275 41.344 69.5275 43.52H68.1195V30.016H71.0635C71.9595 27.584 73.3888 25.728 75.3515 24.448C77.3568 23.168 79.8102 22.528 82.7115 22.528C85.7408 22.528 88.3648 23.2107 90.5835 24.576C92.8022 25.8987 94.4875 27.84 95.6395 30.4C96.7915 32.96 97.3675 35.9893 97.3675 39.488V64H80.7275V43.52Z" fill="#FFD12E"/>
<path d="M12.8 62.848L12.3571 63.7446L12.3614 63.7467L12.8 62.848ZM4.608 55.424L3.74257 55.925L3.74649 55.9318L3.75051 55.9385L4.608 55.424ZM4.672 32.512L3.81063 32.004L3.80863 32.0074L4.672 32.512ZM12.992 24.896L13.4306 25.7947L13.435 25.7925L12.992 24.896ZM37.696 24.576L38.1158 23.6684V23.6684L37.696 24.576ZM45.568 31.36L44.7193 31.8889L44.7238 31.8961L44.7284 31.9032L45.568 31.36ZM48.576 41.664V42.664H49.6088L49.5755 41.6318L48.576 41.664ZM33.152 41.664L32.1609 41.7974L32.2776 42.664H33.152V41.664ZM30.848 36.672L30.1539 37.3918L30.1669 37.4044L30.1805 37.4166L30.848 36.672ZM21.76 36.032L22.2841 36.8837L22.2928 36.8782L21.76 36.032ZM19.2 39.104L20.1114 39.5156L20.1162 39.5048L19.2 39.104ZM19.136 48.832L18.2138 49.2187L18.2215 49.237L18.2298 49.2549L19.136 48.832ZM21.632 51.776L21.0929 52.6183L21.1123 52.6307L21.1323 52.6422L21.632 51.776ZM30.016 51.392L30.6443 52.1699L30.6532 52.1628L30.6619 52.1554L30.016 51.392ZM32.256 47.296V46.296H31.4476L31.2782 47.0865L32.256 47.296ZM47.808 47.296L48.8056 47.3656L48.8802 46.296H47.808V47.296ZM44.544 56.96L43.7218 56.3908L43.72 56.3935L44.544 56.96ZM36.8 63.296L37.204 64.2108L37.2138 64.2064L36.8 63.296ZM25.344 65.472V64.472C20.6876 64.472 16.6616 63.6201 13.2386 61.9493L12.8 62.848L12.3614 63.7467C16.1064 65.5746 20.4431 66.472 25.344 66.472V65.472ZM12.8 62.848L13.2429 61.9514C9.863 60.2818 7.28092 57.9352 5.46549 54.9095L4.608 55.424L3.75051 55.9385C5.77508 59.3128 8.65433 61.9155 12.3571 63.7446L12.8 62.848ZM4.608 55.424L5.47343 54.923C3.69761 51.8556 2.792 48.2368 2.792 44.032H1.792H0.792C0.792 48.5312 1.76373 52.507 3.74257 55.925L4.608 55.424ZM1.792 44.032H2.792C2.792 39.7868 3.71792 36.1264 5.53537 33.0166L4.672 32.512L3.80863 32.0074C1.78608 35.4682 0.792 39.4879 0.792 44.032H1.792ZM4.672 32.512L5.53337 33.02C7.39312 29.8665 10.0168 27.4609 13.4306 25.7947L12.992 24.896L12.5534 23.9973C8.79922 25.8297 5.87622 28.5015 3.81063 32.004L4.672 32.512ZM12.992 24.896L13.435 25.7925C16.8988 24.081 20.9869 23.208 25.728 23.208V22.208V21.208C20.7411 21.208 16.3386 22.127 12.549 23.9995L12.992 24.896ZM25.728 22.208V23.208C30.1788 23.208 34.0195 23.9774 37.2762 25.4836L37.696 24.576L38.1158 23.6684C34.5458 22.0173 30.4079 21.208 25.728 21.208V22.208ZM37.696 24.576L37.2762 25.4836C40.5283 26.9877 42.9964 29.1242 44.7193 31.8889L45.568 31.36L46.4167 30.8311C44.4703 27.7078 41.6904 25.3216 38.1158 23.6684L37.696 24.576ZM45.568 31.36L44.7284 31.9032C46.493 34.6304 47.4535 37.8824 47.5765 41.6962L48.576 41.664L49.5755 41.6318C49.4425 37.5096 48.3976 33.8923 46.4076 30.8167L45.568 31.36ZM48.576 41.664V40.664H33.152V41.664V42.664H48.576V41.664ZM33.152 41.664L34.1431 41.5306C33.8237 39.1585 32.9833 37.2433 31.5155 35.9274L30.848 36.672L30.1805 37.4166C31.1874 38.3193 31.8829 39.7322 32.1609 41.7974L33.152 41.664ZM30.848 36.672L31.5421 35.9522C30.1197 34.5805 28.227 33.944 25.984 33.944V34.944V35.944C27.837 35.944 29.187 36.4595 30.1539 37.3918L30.848 36.672ZM25.984 34.944V33.944C24.1735 33.944 22.5709 34.3397 21.2272 35.1858L21.76 36.032L22.2928 36.8782C23.2531 36.2736 24.4665 35.944 25.984 35.944V34.944ZM21.76 36.032L21.2359 35.1803C19.9288 35.9847 18.9507 37.179 18.2838 38.7032L19.2 39.104L20.1162 39.5048C20.644 38.2984 21.3725 37.4446 22.2841 36.8837L21.76 36.032ZM19.2 39.104L18.2886 38.6924C17.6161 40.1815 17.304 41.9747 17.304 44.032H18.304H19.304C19.304 42.164 19.5892 40.6718 20.1114 39.5156L19.2 39.104ZM18.304 44.032H17.304C17.304 46.0031 17.5946 47.7421 18.2138 49.2187L19.136 48.832L20.0582 48.4453C19.5681 47.2766 19.304 45.8156 19.304 44.032H18.304ZM19.136 48.832L18.2298 49.2549C18.8978 50.6862 19.8486 51.8219 21.0929 52.6183L21.632 51.776L22.1711 50.9337C21.282 50.3648 20.5689 49.5378 20.0422 48.4091L19.136 48.832ZM21.632 51.776L21.1323 52.6422C22.4252 53.3881 23.9504 53.736 25.664 53.736V52.736V51.736C24.2203 51.736 23.0575 51.4439 22.1317 50.9098L21.632 51.776ZM25.664 52.736V53.736C27.6246 53.736 29.3154 53.2433 30.6443 52.1699L30.016 51.392L29.3877 50.6141C28.4979 51.3327 27.2874 51.736 25.664 51.736V52.736ZM30.016 51.392L30.6619 52.1554C31.98 51.0401 32.8158 49.4564 33.2338 47.5055L32.256 47.296L31.2782 47.0865C30.9282 48.7196 30.2707 49.8665 29.3701 50.6286L30.016 51.392ZM32.256 47.296V48.296H47.808V47.296V46.296H32.256V47.296ZM47.808 47.296L46.8104 47.2264C46.5658 50.7332 45.5304 53.7784 43.7218 56.3908L44.544 56.96L45.3662 57.5292C47.3976 54.5949 48.5382 51.1975 48.8056 47.3656L47.808 47.296ZM44.544 56.96L43.72 56.3935C41.9547 58.9612 39.5213 60.9606 36.3862 62.3856L36.8 63.296L37.2138 64.2064C40.6494 62.6448 43.3787 60.4202 45.368 57.5265L44.544 56.96ZM36.8 63.296L36.3961 62.3812C33.262 63.7651 29.5857 64.472 25.344 64.472V65.472V66.472C29.8063 66.472 33.7674 65.7282 37.2039 64.2108L36.8 63.296ZM69.5275 9.728H70.5275V8.728H69.5275V9.728ZM69.5275 64V65H70.5275V64H69.5275ZM52.8875 64H51.8875V65H52.8875V64ZM52.8875 9.728V8.728H51.8875V9.728H52.8875ZM79.3835 38.72L78.6178 39.3632L78.6243 39.3709L78.6309 39.3785L79.3835 38.72ZM70.8715 38.72L70.1208 38.0594L70.1189 38.0615L70.8715 38.72ZM69.5275 43.52V44.52H70.5275V43.52H69.5275ZM68.1195 43.52H67.1195V44.52H68.1195V43.52ZM68.1195 30.016V29.016H67.1195V30.016H68.1195ZM71.0635 30.016V31.016H71.7608L72.0018 30.3617L71.0635 30.016ZM75.3515 24.448L74.8134 23.605L74.8052 23.6104L75.3515 24.448ZM90.5835 24.576L90.0594 25.4277L90.0714 25.4349L90.5835 24.576ZM97.3675 64V65H98.3675V64H97.3675ZM80.7275 64H79.7275V65H80.7275V64ZM69.5275 9.728H68.5275V64H69.5275H70.5275V9.728H69.5275ZM69.5275 64V63H52.8875V64V65H69.5275V64ZM52.8875 64H53.8875V9.728H52.8875H51.8875V64H52.8875ZM52.8875 9.728V10.728H69.5275V9.728V8.728H52.8875V9.728ZM80.7275 43.52H81.7275C81.7275 41.2388 81.2632 39.3496 80.1361 38.0615L79.3835 38.72L78.6309 39.3785C79.2958 40.1384 79.7275 41.4492 79.7275 43.52H80.7275ZM79.3835 38.72L80.1492 38.0768C78.9988 36.7073 77.2576 36.12 75.1595 36.12V37.12V38.12C76.9015 38.12 77.9762 38.5994 78.6178 39.3632L79.3835 38.72ZM75.1595 37.12V36.12C73.0581 36.12 71.3096 36.7085 70.1208 38.0594L70.8715 38.72L71.6222 39.3806C72.3108 38.5982 73.4209 38.12 75.1595 38.12V37.12ZM70.8715 38.72L70.1189 38.0615C68.9918 39.3496 68.5275 41.2388 68.5275 43.52H69.5275H70.5275C70.5275 41.4492 70.9592 40.1384 71.6241 39.3785L70.8715 38.72ZM69.5275 43.52V42.52H68.1195V43.52V44.52H69.5275V43.52ZM68.1195 43.52H69.1195V30.016H68.1195H67.1195V43.52H68.1195ZM68.1195 30.016V31.016H71.0635V30.016V29.016H68.1195V30.016ZM71.0635 30.016L72.0018 30.3617C72.8318 28.109 74.1344 26.4356 75.8978 25.2856L75.3515 24.448L74.8052 23.6104C72.6432 25.0204 71.0872 27.059 70.1252 29.6703L71.0635 30.016ZM75.3515 24.448L75.8895 25.2909C77.702 24.134 79.9587 23.528 82.7115 23.528V22.528V21.528C79.6616 21.528 77.0116 22.202 74.8135 23.6051L75.3515 24.448ZM82.7115 22.528V23.528C85.5864 23.528 88.0225 24.1742 90.0594 25.4277L90.5835 24.576L91.1076 23.7243C88.7071 22.2471 85.8953 21.528 82.7115 21.528V22.528ZM90.5835 24.576L90.0714 25.4349C92.0986 26.6434 93.6521 28.4203 94.7276 30.8104L95.6395 30.4L96.5514 29.9896C95.323 27.2597 93.5058 25.1539 91.0956 23.717L90.5835 24.576ZM95.6395 30.4L94.7276 30.8104C95.8091 33.2137 96.3675 36.097 96.3675 39.488H97.3675H98.3675C98.3675 35.8817 97.7739 32.7063 96.5514 29.9896L95.6395 30.4ZM97.3675 39.488H96.3675V64H97.3675H98.3675V39.488H97.3675ZM97.3675 64V63H80.7275V64V65H97.3675V64ZM80.7275 64H81.7275V43.52H80.7275H79.7275V64H80.7275Z" fill="#FFD12E" mask="url(#path-1-outside-1_113_331)"/>
</svg>
